PathFileType	4	(X/Y/Z)	E:\Qualisys_Data\Carbon_Farble_Plate\Data\Amateur_Runner\S14\T1\S14T1V13_c3d.trc
DataRate	CameraRate	NumFrames	NumMarkers	Units	OrigDataRate	OrigDataStartFrame	OrigNumFrames
200.000000	200.000000	4	39	mm	200.000000	254	339
Frame#	Time	LSHO			RSHO			LICST			RICST			LASIS			LHEEL			RASIS			LTROC			RTROC			SACR			LTH1			LSK4			LTH2			LTH3			RHM5			LSK2			LTH4			RTH1			LTOE			RTH2			RTH3			RTH4			LLEP			RLEP			LSK1			LSK3			RSK1			LHM5			RSK2			LFT1			RSK3			RSK4			LLME			RLME			RTOE			RHEEL			RFT1			RFT2			LFT2			
		X1	Y1	Z1	X2	Y2	Z2	X3	Y3	Z3	X4	Y4	Z4	X5	Y5	Z5	X6	Y6	Z6	X7	Y7	Z7	X8	Y8	Z8	X9	Y9	Z9	X10	Y10	Z10	X11	Y11	Z11	X12	Y12	Z12	X13	Y13	Z13	X14	Y14	Z14	X15	Y15	Z15	X16	Y16	Z16	X17	Y17	Z17	X18	Y18	Z18	X19	Y19	Z19	X20	Y20	Z20	X21	Y21	Z21	X22	Y22	Z22	X23	Y23	Z23	X24	Y24	Z24	X25	Y25	Z25	X26	Y26	Z26	X27	Y27	Z27	X28	Y28	Z28	X29	Y29	Z29	X30	Y30	Z30	X31	Y31	Z31	X32	Y32	Z32	X33	Y33	Z33	X34	Y34	Z34	X35	Y35	Z35	X36	Y36	Z36	X37	Y37	Z37	X38	Y38	Z38	X39	Y39	Z39	

255	1.27	1314.300048828125	1413.9453125	-574.6595458984375	1449.041381835938	1417.043823242188	-309.2809143066406	1339.51953125	963.0277099609376	-536.9337158203125	1401.298828125	973.1905517578124	-269.9464721679688	1388.901000976562	919.1739501953124	-515.7399291992188	1414.144287109375	67.26729583740234	-390.3620910644531	1421.933227539062	928.3485107421876	-289.0220947265625	1254.272705078125	834.5215454101562	-537.2064208984375	1274.446655273438	881.5135498046875	-216.2751922607422	1232.842529296875	967.9798583984376	-386.8233947753906	1412.082641601562	632.0765991210938	-547.45947265625	1409.986083984375	262.9523010253906	-476.9973449707031	1345.062866210938	607.4431762695312	-516.8864135742188	1458.769165039062	547.3174438476562	-521.2026977539062	854.7581176757812	191.4073181152344	-242.7698516845703	1406.577270507812	360.1794128417969	-499.5861206054688	1387.32763671875	521.2073364257812	-497.5117797851562	1360.586303710938	623.4191284179688	-229.8304901123047	1669.371459960938	70.74107360839844	-442.7061157226562	1286.236206054688	640.4264526367188	-212.9692077636719	1340.62109375	526.058349609375	-247.3561706542969	1259.625732421875	542.5866088867188	-228.6830139160156	1455.882690429688	473.3680725097656	-509.9603576660156	1256.002563476562	472.7294616699219	-234.24072265625	1488.5126953125	362.1510314941406	-507.6498107910156	1489.832885742188	261.2748413085938	-488.0610961914062	1165.0048828125	392.0457458496094	-233.0556640625	1596.545654296875	50.24270629882812	-495.6314392089844	1126.823486328125	468.9271545410156	-236.0850524902344	1430.366333007812	43.35116958618164	-364.8524475097656	1069.5673828125	352.2268371582031	-250.8563995361328	1041.352294921875	427.0802307128906	-252.9942169189453	1461.956298828125	86.81705474853516	-455.4111938476562	896.9688720703125	330.0543823242188	-276.9935302734375	882.2123413085938	116.8370132446289	-295.6112365722656	869.6665649414062	372.4885559082031	-339.1298828125	846.116943359375	350.6474609375	-370.607177734375	843.0366821289062	370.242919921875	-315.0701599121094	1412.926391601562	39.1378173828125	-416.5749206542969
256	1.275	1330.520385742188	1408.210083007812	-576.206298828125	1463.6591796875	1412.375122070312	-309.414794921875	1351.320434570312	959.5304565429688	-537.8126220703125	1416.018310546875	968.0840454101562	-270.045654296875	1402.9873046875	915.3213500976562	-516.0729370117188	1415.639404296875	67.6604995727539	-388.4706726074219	1436.83740234375	923.3903198242188	-289.4476318359375	1268.459106445312	829.498779296875	-536.5152587890625	1290.281860351562	875.4943237304688	-216.2856903076172	1247.282592773438	963.4619750976562	-386.5295104980469	1428.295654296875	629.447509765625	-547.5054931640625	1421.513305664062	261.8880615234375	-476.0441284179688	1361.079467773438	603.8177490234375	-517.6256713867188	1475.499877929688	544.6820068359375	-521.980712890625	873.4815673828125	193.3304138183594	-243.1432037353516	1421.386352539062	360.1570739746094	-500.7281494140625	1403.98486328125	517.9000244140625	-498.4883117675781	1380.158569335938	619.0137939453125	-229.6412353515625	1666.29345703125	69.91156005859375	-445.0290832519531	1305.15185546875	634.5119018554688	-212.7373962402344	1361.778930664062	520.8909912109375	-246.9541778564453	1280.986328125	536.0584716796875	-227.89208984375	1472.701416015625	470.69140625	-510.6914672851562	1277.884399414062	466.8466491699219	-233.3388061523438	1503.390258789062	358.4983215332031	-507.4132995605469	1500.3310546875	258.3308715820312	-486.8484802246094	1186.582885742188	387.1724853515625	-232.4735412597656	1594.836791992188	51.06605911254883	-494.9694519042969	1149.643676757812	465.3827514648438	-235.6758880615234	1431.52978515625	42.71385192871094	-362.9317626953125	1090.607788085938	349.8860168457031	-250.6680755615234	1063.510009765625	425.0765991210938	-252.7110748291016	1464.24658203125	86.41934967041016	-453.3833312988281	917.3150634765624	331.6560363769531	-277.2433776855469	900.0779418945312	118.3632354736328	-295.2824096679688	891.1024780273438	374.1977233886719	-339.8343505859375	867.227294921875	352.7500915527344	-371.328125	864.279052734375	372.3602905273438	-315.5455322265625	1413.662353515625	40.12152862548828	-415.0779418945312
257	1.28	1346.77197265625	1402.243530273438	-578.0182495117188	1478.2265625	1407.904052734375	-309.1193542480469	1364.937744140625	954.70361328125	-538.8827514648438	1430.899658203125	963.0846557617188	-269.9954223632812	1416.721069335938	911.8710327148438	-516.5027465820312	1417.526733398438	68.615234375	-386.973876953125	1451.84033203125	918.6415405273438	-289.9761962890625	1282.284057617188	824.6024780273438	-536.1536254882812	1306.845703125	869.5164794921875	-216.0782012939453	1261.364379882812	958.9298095703124	-386.2117919921875	1444.4140625	626.86669921875	-548.2837524414062	1432.769287109375	264.3521118164062	-478.6759643554688	1377.548095703125	601.3390502929688	-518.2536010742188	1492.213745117188	542.6742553710938	-522.1389770507812	893.0838623046875	195.6343078613281	-242.8481750488281	1436.463134765625	361.6532287597656	-503.1865234375	1420.9619140625	516.050048828125	-499.4041748046875	1399.5078125	614.3732299804688	-230.0246276855469	1667.354858398438	64.83541870117188	-444.9706115722656	1324.499267578125	628.31494140625	-212.7082672119141	1383.148803710938	515.5391845703125	-246.6871337890625	1302.141845703125	529.1921997070312	-227.41650390625	1490.808471679688	468.4815673828125	-511.0828552246094	1300.705200195312	461.1279602050781	-232.3386688232422	1519.024291992188	356.0625305175781	-506.3022766113281	1511.871215820312	256.1375732421875	-485.826904296875	1208.504760742188	383.1351013183594	-232.1421508789062	1595.1416015625	49.17177581787109	-495.7904357910156	1172.894897460938	461.8826599121094	-234.9448852539062	1432.0185546875	42.81081771850586	-362.3742065429688	1112.320556640625	347.0369262695312	-250.6979675292969	1086.452270507812	422.9844970703125	-252.1034393310547	1465.603881835938	87.50413513183594	-452.007568359375	938.851318359375	333.0133666992188	-277.4081726074219	919.1882934570312	119.9657821655273	-294.7863159179688	912.5596923828124	375.5675964355469	-339.9591979980469	888.86279296875	354.6131591796875	-371.825439453125	886.0108032226562	374.3880920410156	-316.195556640625	1414.644775390625	41.60938262939453	-414.201416015625
258	1.285	1363.269775390625	1396.47607421875	-580.0352172851562	1492.90673828125	1403.323852539062	-309.0519714355469	1380.191162109375	950.8248291015624	-538.4509887695312	1445.696655273438	957.7686767578124	-270.3890686035156	1430.176513671875	908.1426391601562	-516.79931640625	1419.00830078125	70.54495239257812	-387.0715637207031	1466.481567382812	913.8605346679688	-290.2820434570312	1295.819580078125	820.2171020507812	-536.2747802734375	1322.463989257812	863.0759887695312	-216.1699676513672	1274.060791015625	954.3884887695312	-385.9705810546875	1460.118896484375	625.6002197265625	-549.2560424804688	1444.166137695312	265.5528564453125	-479.8810729980469	1393.911743164062	598.9367065429688	-519.3818969726562	1509.809204101562	542.124267578125	-523.0389404296875	913.6390991210938	196.3565368652344	-244.1287994384766	1451.43798828125	361.9268188476562	-505.13720703125	1439.065551757812	514.4158935546875	-500.5901489257812	1419.163452148438	609.9274291992188	-230.2674865722656	1670.617065429688	63.12080001831055	-444.6547546386719	1344.258544921875	622.4347534179688	-212.4456634521484	1404.737915039062	510.6288452148438	-246.8835754394531	1323.730102539062	522.8634033203125	-227.1654205322266	1509.943969726562	467.880859375	-511.6343078613281	1323.40673828125	454.9360046386719	-232.1436004638672	1534.340576171875	354.6060180664062	-505.7167358398438	1523.432373046875	255.0170288085938	-484.6513366699219	1231.327514648438	379.1280517578125	-231.954833984375	1597.7470703125	47.97196197509766	-496.1552429199219	1196.557983398438	458.6463928222656	-233.9127655029297	1433.340698242188	44.02689361572266	-362.4297180175781	1134.503295898438	344.6644287109375	-250.6587066650391	1109.67919921875	420.6508483886719	-251.6967315673828	1466.886352539062	89.71731567382812	-452.6676330566406	960.3883056640624	333.8108520507812	-277.5160827636719	939.14404296875	121.0126037597656	-294.2681579589844	934.9452514648438	376.7945251464844	-340.0013122558594	910.9716796875	355.6761169433594	-371.4711608886719	908.2547607421876	375.7349853515625	-316.236328125	1415.8369140625	43.38648223876953	-414.2139587402344
